Coordinates
version=1
nRows=17
nColumns=36
inDegrees=yes

Units are S.I. units (second, meters, Newtons, ...)
If the header above contains a line with 'inDegrees', this indicates whether rotational values are in degrees (yes) or radians (no).

endheader
time	pelvis_tilt	pelvis_list	pelvis_rotation	pelvis_tx	pelvis_ty	pelvis_tz	hip_flexion_r	hip_adduction_r	hip_rotation_r	knee_angle_r	knee_angle_r_beta	ankle_angle_r	subtalar_angle_r	mtp_angle_r	hip_flexion_l	hip_adduction_l	hip_rotation_l	knee_angle_l	knee_angle_l_beta	ankle_angle_l	subtalar_angle_l	mtp_angle_l	lumbar_extension	lumbar_bending	lumbar_rotation	arm_flex_r	arm_add_r	arm_rot_r	elbow_flex_r	pro_sup_r	arm_flex_l	arm_add_l	arm_rot_l	elbow_flex_l	pro_sup_l
      9.60000000	    -21.27168523	     -0.42963310	     -4.79374696	     -0.23540660	      0.89035516	     -0.48040392	     39.12580973	      4.05371638	     -1.85948713	     28.78889576	      0.50246102	      9.76561808	    -16.83030942	     -7.49999987	     34.18563635	    -18.92837368	     -9.51039726	     21.32223951	      0.37214328	      4.21393558	      1.02913057	     -7.49999987	     -3.38855293	      6.70893832	     -1.81069978	      0.68729205	    -15.18196642	      5.82293274	     59.24983029	    105.74011413	     -8.45487740	     -5.35141933	    -13.75519056	     55.68180844	    105.14024865
      9.61000000	    -20.57446922	     -0.60820057	     -4.82576403	     -0.23255193	      0.89388123	     -0.48078647	     37.49908979	      4.16747911	     -1.94039846	     27.42804093	      0.47870962	      9.34518152	    -16.59939194	     -7.49999987	     32.55477009	    -18.80221789	     -9.43096505	     20.02718249	      0.34954027	      3.59153954	      0.86954826	     -7.49999987	     -3.23895683	      6.90888158	     -1.76964070	     -0.25849312	    -15.28260308	      4.71819347	     58.22355270	    105.59627672	     -9.02487564	     -4.78807696	    -15.49441748	     54.24797481	    104.91338234
      9.62000000	    -19.98683058	     -0.78407749	     -4.79247198	     -0.22991479	      0.89706363	     -0.48110754	     36.03143672	      4.28232518	     -1.97832003	     26.13127615	      0.45607681	      8.87367537	    -16.54614503	     -7.49999987	     31.13233907	    -18.67856363	     -9.35561170	     18.81137956	      0.32832051	      2.91921667	      0.50601944	     -7.49999987	     -3.02161202	      7.08946632	     -1.78309631	     -1.25039556	    -15.33897857	      3.53471127	     57.31180534	    105.48991159	     -9.56758056	     -4.27390175	    -17.29249815	     52.89026074	    104.72223630
      9.63000000	    -19.54901349	     -0.92121859	     -4.87507260	     -0.22757680	      0.89989761	     -0.48133693	     34.76304201	      4.45240833	     -1.70357102	     24.86649649	      0.43400224	      8.47770197	    -16.25295227	     -7.49999987	     29.84499588	    -18.56663280	     -9.11236679	     17.61516900	      0.30744270	      2.47520162	      0.47299682	     -7.49999987	     -2.65685155	      7.24791232	     -1.64587617	     -2.20594672	    -15.56378456	      2.77604284	     56.43062975	    105.42241300	    -10.18388022	     -3.93751343	    -18.39887666	     51.63939394	    104.50777454
      9.64000000	    -18.89198088	     -1.06571991	     -5.03549225	     -0.22537607	      0.90293495	     -0.48161580	     33.32117409	      4.63305460	     -1.48973268	     23.67133135	      0.41314267	      7.73591607	    -16.46717186	     -7.49999987	     28.32460558	    -18.45371832	     -8.97802446	     16.43982203	      0.28692902	      1.57071940	     -0.53470331	     -7.49999987	     -2.61673709	      7.38457192	     -1.12333427	     -3.34748249	    -15.61744364	      1.12653539	     55.84665497	    105.52480679	    -10.37245943	     -3.50502448	    -19.69075355	     50.16276584	    104.15925440
      9.65000000	    -18.37267170	     -1.31052473	     -5.08416122	     -0.22312604	      0.90541314	     -0.48206118	     32.01873682	      4.83948924	     -1.41937746	     22.52553209	      0.39314470	      7.45094511	    -16.05883603	     -7.49999987	     27.07400169	    -18.43923044	     -8.71262812	     15.43398130	      0.26937379	      1.32654818	     -0.60730291	     -7.49999987	     -2.40359481	      7.60181088	     -0.85936698	     -4.28397901	    -15.96836187	      0.51318683	     55.05107571	    105.45028052	    -10.81688405	     -3.27312858	    -20.47269555	     49.16559886	    104.00272959
      9.66000000	    -17.88662313	     -1.59221375	     -4.95340284	     -0.22082740	      0.90747688	     -0.48266481	     30.77608726	      5.00008885	     -1.56744958	     21.44127277	      0.37422081	      7.11754476	    -16.06548029	     -7.49999987	     26.01042286	    -18.40567985	     -8.24862103	     14.57024982	      0.25429883	      0.67764129	     -1.42947170	     -7.49999987	     -2.15890875	      7.90044175	     -0.59667211	     -5.54895348	    -16.00336893	     -1.32618390	     54.82040743	    105.29368397	    -11.01579568	     -2.99086543	    -21.52882438	     47.92191961	    103.96042721
      9.67000000	    -17.46870912	     -1.93762405	     -4.84881390	     -0.21865119	      0.90928489	     -0.48313927	     29.60397744	      5.25574360	     -1.62648764	     20.35727900	      0.35530155	      6.76768041	    -15.87582287	     -7.49999987	     25.08846267	    -18.52770577	     -7.88834805	     13.84434192	      0.24162935	      0.43082812	     -1.55826128	     -7.49999987	     -1.83687853	      8.23575545	     -0.64919083	     -6.33320826	    -16.18903677	     -2.10120804	     54.02486180	    105.17775844	    -11.53001096	     -2.73052002	    -22.77262886	     47.09559650	    104.11404671
      9.68000000	    -17.07132016	     -2.19437278	     -4.85309023	     -0.21664547	      0.91106991	     -0.48341489	     28.49581218	      5.50488418	     -1.44216786	     19.32445806	      0.33727542	      6.57026970	    -15.60123602	     -7.49999987	     24.13733629	    -18.60622680	     -7.63143775	     13.10258148	      0.22868319	      0.07323352	     -1.90125820	     -7.49999987	     -1.54239328	      8.46891549	     -0.58145632	     -7.06629575	    -16.35829495	     -2.69469546	     53.16641166	    105.14265899	    -11.93248986	     -2.59974104	    -23.64767645	     46.08035079	    104.31805520
      9.69000000	    -16.57986900	     -2.45291714	     -4.84319747	     -0.21458875	      0.91284176	     -0.48371273	     27.31637544	      5.71335589	     -1.41325082	     18.33180424	      0.31995034	      6.28659015	    -15.36048762	     -7.49999987	     23.13920751	    -18.72966734	     -7.56518306	     12.46639270	      0.21757960	     -0.15072864	     -1.86326328	     -7.49999987	     -1.37007107	      8.69954360	     -0.48279795	     -7.75880882	    -16.59879064	     -3.16372293	     52.33041319	    104.91502076	    -12.27469376	     -2.55157233	    -24.24338631	     45.14807933	    104.01323346
      9.70000000	    -16.18444212	     -2.67122208	     -4.78744890	     -0.21271697	      0.91431222	     -0.48410448	     26.31278596	      5.86821283	     -1.40798782	     17.45221438	      0.30459860	      5.84732049	    -15.32893649	     -7.49999987	     22.34285247	    -18.81454593	     -7.42469662	     11.96677783	      0.20885967	     -0.31849528	     -1.88652027	     -7.49999987	     -1.11247871	      8.88315796	     -0.49868396	     -8.37221563	    -16.71738521	     -3.88227068	     51.49572339	    104.82599085	    -12.59268785	     -2.32403253	    -25.55428820	     44.33775769	    103.90597352
      9.71000000	    -15.71908795	     -2.90782498	     -4.69289910	     -0.21096294	      0.91575371	     -0.48452433	     25.23912611	      6.02183644	     -1.41047830	     16.59148161	      0.28957598	      5.90357809	    -14.95531019	     -7.49999987	     21.50089448	    -18.91167088	     -7.22001541	     11.47857258	      0.20033888	     -0.44652694	     -1.78891945	     -7.49999987	     -0.96040465	      9.06675679	     -0.50380440	     -8.93236189	    -16.93658457	     -4.17636554	     50.66581280	    104.10447388	    -12.91055948	     -2.36552464	    -25.88031788	     43.63137016	    103.31513467
      9.72000000	    -15.18590773	     -3.21527690	     -4.58516782	     -0.20937636	      0.91721421	     -0.48486164	     24.07619516	      6.26296042	     -1.36839253	     15.68002332	      0.27366803	      5.71626396	    -14.79515171	     -7.49999987	     20.63194759	    -19.09762634	     -7.08993390	     11.04107931	      0.19270319	     -0.60590181	     -1.77140647	     -7.49999987	     -0.93322759	      9.31181213	     -0.48502167	     -9.41960477	    -17.07266044	     -4.70591396	     49.78733108	    104.32925552	    -13.09811622	     -2.38968003	    -26.27903863	     42.81745829	    103.58117370
      9.73000000	    -14.64724561	     -3.48005334	     -4.48283497	     -0.20780883	      0.91858353	     -0.48511900	     22.92895398	      6.46596138	     -1.42208059	     14.77874750	      0.25793780	      5.32164897	    -14.63171638	     -7.49999987	     19.77228817	    -19.26445819	     -7.19160315	     10.63915489	      0.18568828	     -0.66389547	     -1.61133855	     -7.49999987	     -0.93521528	      9.51979433	     -0.36148265	     -9.98201694	    -16.95903467	     -5.92683821	     49.06455856	    104.71873193	    -13.12842429	     -2.38154542	    -26.94441311	     41.81837901	    104.51986169
      9.74000000	    -14.16788721	     -3.73436559	     -4.33644054	     -0.20636239	      0.91976540	     -0.48548268	     21.85145362	      6.65503165	     -1.34061238	     13.90917913	      0.24276097	      5.40071770	    -14.31538384	     -7.49999987	     18.99355941	    -19.40999026	     -7.19578284	     10.20786368	      0.17816083	     -0.77162512	     -1.38554887	     -7.49999987	     -0.88694355	      9.70196258	     -0.37445210	    -10.41503399	    -17.04303855	     -6.30654296	     48.30063899	    104.10481892	    -13.30856213	     -2.44360307	    -27.08416713	     41.25576079	    103.94484375
      9.75000000	    -13.57605238	     -4.00025945	     -4.16279756	     -0.20495241	      0.92114453	     -0.48585659	     20.64563075	      6.84424342	     -1.31032319	     13.00367495	      0.22695694	      5.01209538	    -14.20388746	     -7.49999987	     18.13462222	    -19.58082616	     -7.43916168	      9.83048784	      0.17157438	     -0.82887748	     -1.04999369	     -7.49999987	     -0.98555915	      9.87598631	     -0.45693720	    -10.66584474	    -17.01704350	     -6.94982354	     47.36909765	    104.31754112	    -13.36783661	     -2.49085065	    -27.42164617	     40.47969844	    104.23736356
      9.76000000	    -13.04379504	     -4.23351703	     -3.97277628	     -0.20361741	      0.92235250	     -0.48629394	     19.51612037	      6.99488791	     -1.28637205	     12.11250138	      0.21140303	      4.75362412	    -14.12123637	     -7.49999987	     17.40042500	    -19.75592226	     -7.93316839	      9.55038882	      0.16668573	     -0.55094814	     -0.06128743	     -7.49999987	     -1.06529713	     10.01459728	     -0.56522245	    -10.99126067	    -16.93721849	     -7.76805457	     46.69646205	    104.58258061	    -13.46335865	     -2.45346981	    -28.09385284	     39.99677878	    104.83329614
